<svg width="1200" height="1200" viewBox="0 0 1200 1200" fill="none" xmlns="http://www.w3.org/2000/svg">
<mask id="mask0_410_1502" style="mask-type:alpha" maskUnits="userSpaceOnUse" x="0" y="0" width="1197" height="1197">
<circle cx="598.033" cy="598.033" r="598.033" fill="#D9D9D9"/>
</mask>
<g mask="url(#mask0_410_1502)">
<path d="M1130.2 330.588C1368.23 789.02 949.804 1306.27 450.98 1180C227.058 1124.31 47.0584 930.196 9.80354 702.353C-32.5494 475.686 69.8035 232.157 261.176 103.922C523.529 -76.4704 887.058 -16.4704 1074.9 241.569C1076.08 242.745 1075.69 244.706 1074.12 245.883C1072.94 247.059 1070.98 246.667 1069.8 245.098C1043.92 211.765 1014.51 181.569 982.353 154.51C929.411 109.412 867.451 74.1179 801.96 50.1963C468.627 -70.588 102.745 130.196 29.8035 478.824C-52.5494 869.412 279.607 1229.02 675.686 1175.29C981.176 1136.86 1208.23 854.902 1183.14 548.235C1177.65 474.118 1158.04 400.785 1125.49 333.334C1124.71 332.157 1125.49 330.588 1126.67 329.804C1127.84 329.02 1129.41 329.412 1130.2 330.588Z" fill="black"/>
<path d="M925.883 1091.76C923.138 1093.73 920.001 1095.69 917.256 1097.65C914.119 1099.61 911.374 1101.57 908.236 1103.14C905.491 1104.71 903.138 1106.27 900.393 1107.84C900.001 1108.24 899.609 1108.24 899.217 1108.63C890.197 1114.12 880.785 1119.22 871.374 1123.92C868.628 1125.49 865.491 1127.06 862.746 1128.24C862.746 1128.24 862.354 1128.63 861.962 1128.63C858.825 1130.2 855.687 1131.76 852.55 1133.33C846.276 1136.47 839.609 1139.22 833.334 1141.96C830.197 1143.53 826.668 1144.71 823.53 1145.88C820.393 1147.06 816.864 1148.63 813.727 1149.8C810.589 1150.98 807.06 1152.55 803.923 1153.73C803.923 1153.73 803.923 1153.73 803.53 1153.73C800.393 1154.9 796.864 1156.08 793.727 1157.25C786.668 1159.61 779.217 1161.96 772.158 1164.31C769.805 1165.1 767.06 1165.88 764.707 1166.67C757.256 1169.02 749.805 1170.98 742.354 1172.55C739.609 1173.33 736.864 1173.73 733.727 1174.51C726.668 1176.08 719.217 1177.65 712.158 1179.22C710.589 1179.61 709.413 1179.61 707.844 1180C705.491 1180.39 702.746 1180.78 700.393 1181.18C696.864 1181.57 693.727 1182.35 690.197 1182.74C688.628 1183.14 687.06 1183.14 685.491 1183.53C683.53 1183.92 681.178 1184.31 678.825 1184.31C672.55 1185.1 665.883 1185.88 659.609 1186.67C657.648 1187.06 655.295 1187.06 653.334 1187.45H652.942C650.197 1187.84 647.452 1187.84 644.707 1188.24C641.962 1188.63 639.217 1188.63 636.472 1188.63C634.903 1188.63 632.942 1189.02 631.374 1189.02C628.236 1189.02 625.491 1189.41 622.746 1189.41C618.825 1189.41 615.295 1189.8 611.374 1189.8C607.452 1189.8 603.923 1189.8 600.001 1189.8C597.256 1189.8 594.511 1189.8 591.766 1189.8C426.276 1187.45 277.648 1117.25 171.374 1005.88C171.374 1005.88 171.374 1005.49 170.981 1005.49C159.217 994.902 169.413 938.431 216.864 902.745C276.472 857.647 419.217 829.412 419.217 829.412C419.217 829.412 474.511 820.392 679.609 863.137C799.609 888.235 890.981 924.706 941.962 1023.53C952.55 1043.92 963.138 1075.29 925.883 1091.76Z" fill="white"/>
<path d="M680.786 858.823C756.08 874.118 836.472 890.588 898.433 940.392C919.217 957.255 932.943 981.961 944.315 1005.88C949.805 1017.65 955.296 1029.8 959.609 1042.75C961.962 1051.37 965.492 1061.18 963.531 1071.37C963.139 1074.12 960.786 1077.65 958.825 1079.61C949.805 1088.63 940.001 1094.12 930.198 1101.18C872.551 1141.18 806.276 1169.41 737.649 1184.31C584.707 1217.65 419.217 1191.76 284.707 1111.37C240.002 1084.31 198.825 1051.37 163.531 1012.55C159.609 1007.84 159.609 1000 159.609 994.902C160.002 983.137 163.139 971.765 167.06 961.176C176.472 936.863 188.629 912.549 209.413 895.686C224.315 885.49 240.394 876.863 256.864 869.804C308.629 847.843 363.139 832.549 419.217 826.274C423.923 825.882 424.707 832.549 420.001 833.333C366.276 844.314 312.943 860.784 263.139 883.137C245.1 892.157 225.884 900 211.374 914.118C197.649 929.02 187.845 947.451 180.002 966.274C174.903 977.647 171.374 995.686 172.943 1004.71C197.649 1034.12 226.668 1060 258.041 1082.35C429.805 1202.35 690.59 1210.2 873.335 1110.2C889.805 1101.18 905.884 1090.98 921.178 1080.39C928.629 1075.29 936.472 1070.98 942.354 1065.1C942.747 1064.71 942.354 1065.1 942.354 1065.49C942.354 1065.88 941.962 1066.27 941.962 1066.27C942.354 1061.57 940.786 1055.29 938.825 1049.02C931.766 1026.27 920.394 1002.35 908.237 981.569C889.021 950.588 856.472 930.98 823.531 915.294C800.786 904.706 776.864 896.471 752.55 888.627C728.237 880.784 703.531 874.118 678.825 868.235C672.551 866.667 674.511 857.647 680.786 858.823Z" fill="black"/>
<path d="M979.608 1147.45C972.157 1089.41 939.216 991.764 919.216 965.489C897.255 936.862 888.235 927.842 814.902 903.136C810.98 883.528 796.47 834.117 779.216 813.332C752.941 773.724 681.176 764.705 659.608 769.411C659.608 769.411 543.529 728.626 409.804 728.626C367.451 738.038 318.431 757.254 291.765 797.646C273.725 824.313 294.118 832.94 285.098 857.254C282.745 863.528 227.843 894.901 205.49 913.724C195.294 921.96 183.921 942.744 176.078 969.803C160.392 1025.1 177.255 1101.57 157.647 1168.23C120 1296.86 43.5293 1335.29 43.5293 1335.29H1056.86C1056.08 1334.9 995.686 1269.8 979.608 1147.45Z" fill="#6BD5E1"/>
<path d="M973.726 1148.24C965.883 1096.86 950.197 1045.88 930.197 998.04C920.393 974.902 905.491 952.549 884.707 938.824C874.119 932.157 862.354 927.059 850.197 921.961C838.04 917.255 825.491 912.941 813.334 908.628C811.373 907.843 809.805 906.275 809.413 904.314C807.844 896.471 805.883 889.02 803.53 881.177C793.334 849.412 782.354 814.118 752.55 795.687C729.805 781.961 702.746 775.294 676.472 774.118C671.374 774.118 665.883 774.118 661.177 774.902H659.609C659.217 774.902 658.432 774.902 658.04 774.51C639.217 765.49 618.432 760 598.04 754.51C536.864 740.392 472.942 734.51 410.197 734.118C371.766 743.138 318.04 764.314 294.511 803.53C290.589 809.804 288.628 816.079 289.413 823.138C290.197 830.981 292.942 839.608 290.981 847.843C290.197 851.373 289.413 855.294 287.844 858.432C284.707 862.745 279.609 865.49 275.687 868.236C255.295 881.569 234.511 893.334 214.903 907.059C208.236 911.765 201.962 916.079 197.256 922.745C183.53 942.353 175.295 965.883 171.766 989.412C165.491 1037.26 171.766 1085.88 165.491 1133.73C158.432 1181.57 140.001 1227.84 114.119 1268.63C96.0794 1296.08 74.1186 1321.57 46.2755 1339.22L43.5304 1328.24H1056.86L1052.55 1338.04C1040.79 1324.71 1031.37 1310.2 1022.75 1294.9C996.079 1250.2 980.393 1199.61 973.726 1148.24ZM985.491 1146.67C989.805 1180 998.04 1212.94 1010.59 1244.31C1023.14 1275.29 1038.82 1305.49 1060.79 1330.98C1063.92 1334.51 1061.18 1341.18 1056.47 1340.78H43.1382C40.001 1340.78 37.2559 1338.04 37.2559 1334.9C37.2559 1332.55 38.4323 1330.59 40.3931 1329.8C46.6676 1326.27 52.9421 1321.18 58.8245 1316.08C110.197 1269.8 142.354 1201.18 152.942 1132.94C161.962 1069.02 145.099 1000 173.726 939.216C180.393 925.098 188.628 910.196 201.962 901.177C226.275 883.138 252.942 869.804 276.864 852.157C277.256 852.157 277.256 851.765 277.256 851.765C276.864 852.157 276.472 852.941 276.472 853.334C278.824 847.843 279.609 843.138 278.824 836.863C277.648 829.02 275.687 818.432 278.432 810.196C279.609 805.491 281.962 801.177 284.315 797.647C312.55 755.294 362.354 736.471 409.805 725.883C423.138 726.275 436.864 723.922 450.197 723.922C468.628 723.922 487.452 726.667 505.883 729.02C558.824 737.255 609.805 751.373 661.962 762.745L658.432 762.353C670.589 760 681.962 761.177 693.726 762.745C769.021 774.118 794.511 807.059 814.903 877.255C817.256 885.098 819.217 892.941 821.177 901.177L817.256 896.471C854.903 909.804 897.256 921.961 921.177 956.863C929.805 967.451 936.079 980 941.57 992.549C961.57 1042.75 977.256 1093.33 985.491 1146.67Z" fill="black"/>
<path d="M361.57 889.413C390.589 951.374 435.687 1003.92 489.413 1045.49C491.374 1047.06 489.413 1050.2 487.06 1049.02C439.217 1026.28 398.825 987.452 374.903 940.394C367.06 924.707 360.393 907.844 358.04 890.197C357.256 888.237 360.393 887.452 361.57 889.413Z" fill="black"/>
<path d="M820.786 902.354C821.963 967.844 795.296 1034.9 744.316 1077.26C743.139 1078.43 741.57 1078.04 740.394 1076.86C739.217 1075.69 739.61 1074.12 740.786 1072.94C752.159 1061.96 763.531 1050.59 772.159 1037.26C790.198 1011.37 801.178 980.785 806.276 949.805C808.629 934.511 810.198 918.04 809.021 902.746C808.629 895.295 820.394 894.511 820.786 902.354Z" fill="black"/>
<path d="M589.805 1058.04C580.785 1089.8 573.334 1124.31 577.648 1157.26C578.824 1164.71 567.452 1166.67 565.883 1158.82C563.922 1140.78 566.275 1123.14 569.412 1105.88C572.942 1088.63 577.256 1072.16 583.138 1055.69C584.707 1051.77 591.373 1053.73 589.805 1058.04Z" fill="black"/>
<path d="M714.51 1052.16C727.451 1080 736.471 1109.02 743.53 1138.43C744.314 1141.57 742.353 1144.71 739.216 1145.49C736.079 1146.27 732.941 1144.31 732.157 1141.18C728.236 1119.22 723.138 1097.26 716.079 1075.69C713.726 1068.63 711.373 1061.57 708.628 1054.51C707.059 1050.98 712.549 1048.24 714.51 1052.16Z" fill="black"/>
<path d="M293.335 855.686C307.845 934.902 363.531 1001.96 430.59 1044.71C453.335 1059.22 477.649 1071.76 502.747 1081.96C504.315 1082.75 505.1 1084.31 504.315 1085.88C503.923 1087.45 501.962 1088.24 500.786 1087.45C474.903 1078.04 449.805 1066.27 426.276 1052.16C378.433 1023.92 336.472 984.706 308.237 936.863C293.727 912.157 282.354 886.275 276.864 858.039C276.08 853.333 279.217 849.02 283.923 848.235C288.237 847.059 292.943 850.588 293.335 855.686Z" fill="black"/>
<path d="M566.274 1165.88C555.294 1164.71 547.451 1154.51 549.804 1143.53L554.117 1122.75C555.686 1114.51 563.529 1108.63 571.764 1109.8C580 1110.59 586.666 1117.65 586.666 1126.27V1147.45C587.058 1158.43 577.647 1167.06 566.274 1165.88Z" fill="black"/>
<path d="M747.06 1151.37C736.472 1155.29 725.099 1149.02 722.354 1138.04L717.256 1117.26C715.295 1109.02 719.609 1100.78 727.844 1097.65C735.687 1094.9 744.707 1098.43 748.236 1105.88L757.648 1125.1C762.354 1135.69 757.648 1147.84 747.06 1151.37Z" fill="black"/>
<path d="M928.236 1139.61C928.236 1139.61 950.197 1262.75 941.57 1334.9" stroke="black" stroke-width="5.1257" stroke-miterlimit="10" stroke-linecap="round" stroke-linejoin="round"/>
<path d="M416.078 841.569C410.588 825.883 408.235 809.805 409.411 793.334C409.411 791.765 410.588 790.981 412.156 790.981C413.333 790.981 414.509 792.157 414.509 793.334C415.686 808.236 419.999 823.53 427.058 836.471C430.588 844.314 418.823 849.412 416.078 841.569Z" fill="black"/>
<path d="M681.176 862.354C670.196 837.648 643.137 825.099 619.215 816.471C604.313 811.765 587.843 808.236 572.157 805.883C534.117 800.001 480.392 790.981 442.353 787.059C441.961 787.059 441.961 786.275 442.353 786.275C453.333 785.099 464.313 785.099 475.294 785.099C508.235 785.883 541.176 789.412 573.725 794.51C606.274 799.608 641.176 809.412 665.882 832.942C673.725 841.177 680.784 850.589 682.745 861.961C683.137 863.138 681.568 863.53 681.176 862.354Z" fill="black"/>
<path d="M717.646 963.138C709.41 1003.53 656.077 1027.84 566.273 991.373C472.94 953.726 432.548 863.922 422.352 837.255C477.646 733.726 439.214 661.961 439.214 661.961C566.665 650.981 678.038 800 678.038 800L695.293 873.726C696.861 880 699.999 885.491 704.705 889.412C712.94 903.922 722.744 937.255 717.646 963.138Z" fill="white"/>
<path d="M420.393 838.431C427.844 827.059 432.55 813.726 435.687 800.784C441.57 773.726 443.53 746.275 443.923 718.824V708.627C442.746 698.431 439.217 687.843 435.295 678.431C430.197 665.882 448.629 658.039 454.511 670.588C455.295 672.157 455.295 674.902 455.295 676.471C456.472 729.804 458.825 798.431 425.099 842.745C422.746 845.098 418.04 841.569 420.393 838.431Z" fill="black"/>
<path d="M682.353 799.216C688.235 802.746 690.196 807.452 690.98 812.158C693.333 821.569 692.549 831.766 694.902 841.569C696.863 850.981 702.745 860.001 704.314 869.805C706.274 880.001 712.157 901.569 714.51 912.158C715.294 914.511 713.725 917.256 710.98 917.648C709.412 918.04 708.235 917.648 707.059 916.864C701.961 912.55 699.608 908.236 696.471 902.746C691.372 893.334 687.843 884.707 684.706 874.118C681.961 864.707 683.137 854.511 680.784 844.707C678.823 835.295 673.333 826.275 671.372 816.471C670.196 811.765 669.804 806.667 673.333 800.785C675.686 798.432 679.608 797.648 682.353 799.216Z" fill="black"/>
<path d="M710.589 902.745C635.687 898.824 574.51 875.295 514.902 769.02C565.098 813.334 624.314 830.196 686.667 838.04L694.902 874.118C696.471 880.393 705.883 898.824 710.589 902.745Z" fill="black"/>
<path d="M707.454 888.236C720.787 913.334 728.63 944.706 720.395 972.549C714.12 992.157 696.081 1006.67 676.473 1012.16C630.983 1024.31 578.434 1005.1 538.042 983.53C488.238 955.687 451.375 909.02 427.846 858.04C426.277 854.118 431.767 850.981 434.12 854.902C442.356 871.373 451.767 887.451 462.356 901.961C472.944 916.863 485.101 930.588 498.826 942.745C538.826 978.824 592.944 1001.18 647.061 1001.18C702.748 999.608 723.924 970.196 710.983 916.079C709.022 907.451 705.885 898.432 701.571 890.981C699.218 887.843 705.101 884.314 707.454 888.236Z" fill="black"/>
<path d="M859.217 417.255C866.276 450.196 869.806 476.863 850.59 564.706C831.766 652.157 868.237 740.392 775.688 820.785C713.335 874.902 604.315 885.098 517.257 825.883C487.845 805.883 480.002 712.549 456.865 676.863C447.061 661.961 441.178 685.883 418.825 661.177C387.845 627.451 350.59 559.608 369.021 439.608C398.825 245.098 552.943 222.353 667.061 243.922C781.57 265.49 840.394 330.588 859.217 417.255Z" fill="white"/>
<path d="M438.04 695.686C429.02 680.784 417.647 667.843 407.059 654.118C391.373 632.941 379.608 608.628 371.765 583.53C338.04 476.079 356.079 336.079 455.687 269.02C547.844 206.667 723.922 225.49 804.706 300.784C845.098 337.255 867.451 390.196 872.157 443.529C874.51 479.216 865.883 513.726 858.432 548.235C849.804 581.961 847.844 615.686 847.844 650.588C847.451 685.49 845.883 721.961 832.549 754.902C812.157 805.098 769.412 845.883 718.04 863.137C650.589 886.667 570.981 873.333 515.687 828.235C513.334 826.275 515.687 823.137 518.432 824.314C590.981 865.49 686.275 872.549 756.863 825.098C798.824 796.863 827.844 752.157 834.51 701.961C840 667.843 838.432 633.333 841.569 598.824C842.746 583.529 847.059 562.353 850.196 547.059C854.902 521.569 858.04 496.079 857.647 470.588C857.255 445.49 851.765 420.784 844.314 396.863C818.432 311.765 744.314 261.569 658.824 247.843C530.981 225.49 419.216 272.941 385.883 405.882C371.373 470.98 360 542.745 387.451 605.882C397.255 629.804 413.334 650.196 431.765 667.843L449.804 687.059C457.647 694.902 444.314 705.098 438.04 695.686Z" fill="black"/>
<path d="M484.312 570.98C484.312 570.98 472.155 512.157 414.9 519.215C365.488 525.49 348.233 643.921 460.39 676.863" fill="white"/>
<path d="M455.294 625.49C446.274 620.392 440 611.764 439.608 601.176C440 593.333 441.176 584.313 439.216 576.47C438.039 569.019 430.196 567.058 424.314 567.45C418.039 568.627 414.118 576.47 412.941 582.745C412.941 583.137 412.549 584.313 412.549 584.705C412.157 586.666 409.02 586.666 408.235 584.705C403.137 569.411 414.51 552.548 430.98 554.509C454.118 556.078 457.255 580.392 452.941 598.823C450.588 606.666 453.725 613.725 458.039 620.392L458.824 621.568C460.784 623.921 457.647 627.058 455.294 625.49Z" fill="black"/>
<path d="M769.018 529.412C774.901 557.255 785.881 583.137 799.607 607.451C811.763 637.255 780.391 665.49 752.548 664.313C749.411 664.313 749.018 660 751.763 659.215C769.411 653.725 785.489 641.961 788.234 623.921C789.411 618.431 787.842 613.725 785.097 609.019C772.156 584.706 764.312 556.862 766.273 529.412C766.273 527.451 769.018 527.451 769.018 529.412Z" fill="black"/>
<path d="M482.352 571.373C473.333 548.235 453.725 526.275 427.451 526.667C425.098 526.275 421.176 527.059 418.823 527.059C412.156 527.451 406.666 529.804 401.568 534.51C376.47 559.608 380.784 603.922 401.176 631.765C408.235 641.569 417.254 650.196 427.451 657.255C437.647 664.314 449.019 669.804 461.176 674.51C463.921 675.294 462.745 679.608 460 679.216C433.725 673.725 408.627 660.784 391.372 639.216C364.705 607.059 359.215 553.333 390.98 521.961C398.039 515.686 407.843 510.98 417.647 510.98C420.784 510.98 425.49 510.196 428.627 510.98C445.098 511.765 460.784 520 470.98 532.941C480 543.922 485.098 557.255 486.666 570.588C486.666 572.941 483.137 573.725 482.352 571.373Z" fill="black"/>
<path d="M730.196 701.96C730.588 708.235 725.882 719.215 717.254 727.058C672.941 700 652.941 714.117 652.941 714.117C637.254 690.196 640.784 657.647 678.823 682.353C705.098 699.607 721.568 702.353 730.196 701.96Z" fill="black"/>
<path d="M716.863 727.451C707.451 735.686 693.333 740.784 674.117 732.941C665.098 729.411 658.039 722.352 652.549 714.509C652.941 714.509 672.549 700.392 716.863 727.451Z" fill="white"/>
<path d="M737.646 700.784C737.646 700.784 721.175 709.804 678.822 682.745C628.234 650.196 638.43 718.431 674.117 732.941C711.371 748.235 730.587 714.902 730.195 702.353" stroke="black" stroke-width="3" stroke-miterlimit="10" stroke-linecap="round" stroke-linejoin="round"/>
<path d="M652.941 714.509C652.941 714.509 672.941 700.392 717.255 727.451" stroke="black" stroke-width="3" stroke-miterlimit="10" stroke-linecap="round" stroke-linejoin="round"/>
<path d="M622.746 569.412C613.334 569.02 606.275 561.177 607.06 551.765L607.452 540.785C607.844 531.373 615.687 524.314 625.099 525.099C634.51 525.491 641.569 533.334 640.785 542.746L640.393 553.726C640.001 562.746 632.158 569.804 622.746 569.412Z" fill="black"/>
<path d="M787.844 575.295C779.217 574.903 772.55 567.452 772.942 558.824L773.334 548.628C773.727 540.001 781.177 533.334 789.805 533.726C798.432 534.119 805.099 541.57 804.707 550.197L804.315 560.393C803.923 569.02 796.472 575.687 787.844 575.295Z" fill="black"/>
<path d="M658.041 548.236C645.1 539.608 630.982 533.726 615.296 536.863C610.198 537.647 605.1 539.216 601.963 542.746C600.786 544.314 598.041 543.922 598.041 541.569C598.433 533.726 605.1 528.628 611.374 525.491C623.531 519.216 640.394 520.393 651.374 528.628C655.296 530.981 668.629 545.491 661.57 548.628C660.002 549.412 659.217 549.02 658.041 548.236Z" fill="black"/>
<path d="M770.197 550.197C770.197 533.726 790.589 527.844 803.138 533.726C810.197 536.863 815.295 543.138 817.256 550.589C818.04 552.942 814.511 554.903 812.942 552.942C806.276 545.099 794.903 541.177 785.884 545.883C783.138 547.452 782.746 548.628 781.962 550.197C781.962 558.04 770.589 557.648 770.197 550.197Z" fill="black"/>
<path d="M676.864 483.53C685.099 486.275 693.335 478.824 691.766 469.804C690.982 465.098 689.021 460.392 685.099 456.863C673.335 446.275 624.707 436.863 595.296 450.589C569.413 463.138 639.217 470.981 676.864 483.53Z" fill="black"/>
<path d="M794.12 489.804C787.453 492.157 780.394 485.098 781.571 476.863C781.963 472.549 783.532 468.236 786.669 465.098C796.081 455.687 828.237 448.236 848.63 462.745C866.277 474.902 824.708 478.432 794.12 489.804Z" fill="black"/>
<path d="M890.98 357.254C917.646 334.117 956.862 299.215 916.47 250.588C876.078 201.96 801.568 220.784 801.568 220.784C801.568 220.784 817.254 176.078 773.725 160C721.176 140.784 572.156 198.823 572.156 198.823C561.176 198.431 550.588 198.039 540.784 198.039C412.156 195.294 374.901 276.47 373.333 349.411C373.333 349.411 329.803 363.921 318.823 433.333C315.294 455.686 311.764 484.313 320.392 518.823C343.529 612.941 405.882 678.431 445.49 711.764C460.392 700.784 434.117 685.49 436.078 667.451C350.98 625.882 369.411 525.098 414.901 519.215C449.803 514.901 468.235 535.294 476.862 551.764C480.392 556.47 433.333 294.117 704.705 380C758.431 396.862 813.725 411.764 851.372 384.705C855.686 392.941 858.431 402.745 859.215 417.254C859.215 417.254 924.705 391.764 914.901 365.098C911.764 356.078 890.98 357.254 890.98 357.254Z" fill="black"/>
<path d="M440.394 583.137C440.394 583.137 409.021 578.431 411.374 622.352C412.551 644.705 412.551 656.862 412.158 663.137C411.766 667.451 414.511 671.372 418.433 672.941C423.139 674.901 428.237 672.941 430.59 668.235C434.119 661.96 438.041 653.333 438.041 646.274C438.041 634.509 450.59 623.921 450.59 623.921C450.59 623.921 439.217 614.117 440.394 583.137Z" fill="white"/>
<path d="M439.216 584.313C439.216 584.706 439.608 585.098 440.001 585.098C440.001 585.098 440.001 585.098 439.608 585.098H438.824C420.001 586.666 414.118 603.137 414.903 620C415.295 630.98 416.079 641.961 415.687 652.549C416.471 658.431 412.942 666.274 418.824 669.412C422.354 671.372 427.059 669.804 428.628 665.882C432.157 658.823 435.687 651.764 435.687 643.921C437.256 634.902 443.138 627.843 449.412 622.353V625.49C441.177 616.863 439.216 605.098 438.04 594.117C438.432 591.372 438.432 587.059 439.216 584.313ZM441.961 581.568C443.138 592.549 443.138 603.921 447.844 613.725C449.02 616.47 450.981 619.608 453.334 621.568C454.903 622.745 454.903 625.098 453.334 626.274C447.844 631.372 443.138 637.647 442.354 644.706C442.354 653.333 438.824 661.568 434.903 669.019C431.765 675.686 422.746 679.215 416.079 675.294C411.765 672.941 408.628 668.235 408.628 663.137C408.628 659.215 409.02 656.078 409.02 652.157C409.02 641.176 408.236 630.588 407.844 619.608C407.844 612.549 408.236 604.313 411.373 597.255C415.295 586.274 427.452 578.823 439.216 580.784C440.393 580.784 441.569 581.176 441.961 581.568Z" fill="black"/>
<path d="M435.295 1047.45C448.236 990.98 431.373 927.451 416.864 870.98C410.981 848.627 405.099 827.451 402.354 809.019C397.256 778.039 400.785 748.627 413.334 721.176C428.628 687.058 426.275 658.039 426.275 656.862L418.432 657.647C418.432 658.039 420.785 686.274 406.275 718.039C393.334 746.666 389.413 777.647 394.511 810.196C397.648 829.019 403.138 850.588 409.021 872.941C423.53 928.235 440.001 990.98 427.452 1045.49C420.393 1075.69 434.119 1125.1 453.726 1174.51C456.864 1174.9 459.609 1175.29 462.746 1175.69C442.746 1126.27 428.628 1076.47 435.295 1047.45Z" fill="black"/>
<path d="M412.551 645.098C412.943 653.725 412.551 659.608 412.551 663.137C412.159 667.451 414.904 671.372 418.825 672.941C423.531 674.902 428.629 672.941 430.982 668.235C434.512 661.96 438.433 653.333 438.433 646.274C438.433 645.882 438.433 645.098 438.433 644.706C430.59 647.843 421.178 650.196 412.551 645.098Z" fill="white"/>
<path d="M413.727 646.666C414.119 652.156 414.512 657.254 414.512 662.745C414.119 665.098 414.904 667.451 416.472 669.411C421.57 674.509 428.629 671.372 430.59 665.098C433.727 658.823 436.472 652.156 436.472 645.098L439.217 647.058C430.59 648.627 421.57 650.98 413.335 647.451C413.335 647.451 413.727 647.058 413.727 646.666ZM411.766 643.137C412.551 643.137 414.119 643.529 414.904 644.313C421.962 649.411 430.982 647.058 438.041 643.137C439.217 642.353 441.178 643.529 440.786 645.098C440.394 654.117 436.864 662.745 432.159 670.588C427.845 676.47 418.825 676.862 413.727 671.764C411.374 669.411 410.198 665.49 410.59 662.353C410.59 655.686 411.374 649.411 411.766 643.137Z" fill="black"/>
<path d="M781.963 905.882C788.629 859.607 782.355 826.666 780.002 816.862C778.825 817.647 778.041 818.823 776.864 819.607C775.688 820.784 774.512 821.568 773.335 822.745C775.688 835.294 780.002 865.098 774.119 904.705C771.374 923.137 770.59 952.156 770.198 985.882C769.414 1018.43 759.217 1099.61 747.061 1176.47C749.806 1175.69 752.551 1174.9 755.296 1174.51C767.453 1098.43 777.257 1018.82 778.041 986.274C778.825 952.549 779.217 923.921 781.963 905.882Z" fill="black"/>
</g>
</svg>
